<svg width="57" height="56" viewBox="0 0 57 56" fill="none" xmlns="http://www.w3.org/2000/svg">
<rect x="0.333374" width="56" height="56" rx="28" fill="#FFD400"/>
<path fill-rule="evenodd" clip-rule="evenodd" d="M35.7824 24.4482L32.7212 26.9992C32.8708 27.6574 32.8708 28.3426 32.7212 29.0008L35.7824 31.5518C36.8504 29.3118 36.8504 26.6882 35.7824 24.4482ZM31.8852 35.449L29.3342 32.3878C28.6759 32.5374 27.9908 32.5374 27.3325 32.3878L24.7815 35.449C27.0216 36.517 29.6451 36.517 31.8852 35.449ZM20.8844 31.5518L23.9456 29.0008C23.796 28.3426 23.796 27.6574 23.9456 26.9992L20.8844 24.4482C19.8164 26.6882 19.8164 29.3118 20.8844 31.5518ZM24.7815 20.551L27.3325 23.6122C27.9908 23.4626 28.6759 23.4626 29.3342 23.6122L31.8852 20.551C29.6451 19.483 27.0216 19.483 24.7815 20.551ZM33.4389 19.6912C34.0758 20.0833 34.6769 20.5549 35.2277 21.1057C35.7784 21.6565 36.2501 22.2576 36.6422 22.8945C38.5638 26.0163 38.5638 29.9837 36.6422 33.1055C36.2501 33.7424 35.7784 34.3435 35.2277 34.8943C34.6769 35.4451 34.0758 35.9167 33.4389 36.3088C30.3171 38.2304 26.3497 38.2304 23.2279 36.3088C22.5909 35.9167 21.9899 35.4451 21.4391 34.8943C20.8883 34.3435 20.4166 33.7424 20.0246 33.1055C18.103 29.9837 18.103 26.0163 20.0246 22.8945C20.4166 22.2576 20.8883 21.6565 21.4391 21.1057C21.9899 20.5549 22.5909 20.0833 23.2279 19.6912C26.3497 17.7696 30.3171 17.7696 33.4389 19.6912ZM30.4547 25.8787C30.1291 25.5531 29.7491 25.3191 29.3448 25.1747C28.6924 24.9418 27.9744 24.9418 27.3219 25.1747C26.9176 25.3191 26.5376 25.5531 26.2121 25.8787C25.8865 26.2042 25.6524 26.5842 25.5081 26.9885C25.2751 27.641 25.2751 28.359 25.5081 29.0114C25.6524 29.4158 25.8865 29.7958 26.2121 30.1213C26.5376 30.4469 26.9176 30.6809 27.3219 30.8253C27.9744 31.0582 28.6924 31.0582 29.3448 30.8253C29.7491 30.6809 30.1291 30.4469 30.4547 30.1213C30.7802 29.7958 31.0143 29.4158 31.1587 29.0115C31.3916 28.359 31.3916 27.641 31.1587 26.9885C31.0143 26.5842 30.7802 26.2042 30.4547 25.8787Z" fill="#262626"/>
</svg>
