<svg width="48" height="48" viewBox="0 0 48 48" fill="none" xmlns="http://www.w3.org/2000/svg">
<path d="M0.000488281 47.9998C0.000488006 44.8481 0.621263 41.7272 1.82737 38.8154C3.03349 35.9036 4.80131 33.2579 7.02992 31.0292C9.25852 28.8006 11.9043 27.0328 14.8161 25.8267C17.7279 24.6206 20.8487 23.9998 24.0005 23.9998V47.9998L0.000488281 47.9998Z" fill="#1A1A1A"/>
<path d="M24.0005 23.9998C24.0005 27.1515 24.6213 30.2724 25.8274 33.1842C27.0335 36.096 28.8014 38.7418 31.03 40.9704C33.2586 43.199 35.9043 44.9668 38.8161 46.1729C41.7279 47.379 44.8488 47.9998 48.0005 47.9998L48.0005 23.9998L24.0005 23.9998Z" fill="#FFD400"/>
<path d="M24.0005 23.9998C24.0005 20.8481 23.3797 17.7272 22.1736 14.8154C20.9675 11.9036 19.1996 9.25785 16.971 7.02924C14.7424 4.80064 12.0967 3.03282 9.18488 1.82671C6.27307 0.620594 3.15221 -0.000183105 0.000488281 -0.000183105L0.000489946 23.9998H24.0005Z" fill="#FFD400"/>
<path d="M48.0004 -0.00012207C48.0004 3.1516 47.3796 6.27246 46.1735 9.18427C44.9674 12.0961 43.1996 14.7418 40.971 16.9704C38.7424 19.199 36.0966 20.9668 33.1848 22.173C30.273 23.3791 27.1521 23.9998 24.0004 23.9998L24.0004 -0.00012207H48.0004Z" fill="#1A1A1A"/>
</svg>
