<svg width="57" height="56" viewBox="0 0 57 56" fill="none" xmlns="http://www.w3.org/2000/svg">
<rect x="0.666748" width="56" height="56" rx="28" fill="#FFD400"/>
<path d="M33.5479 20.3454C31.4768 21.1739 29.2585 21.7131 26.9427 21.913C26.2752 21.9705 25.5995 22 24.9167 22H24.1667C21.2673 22 18.9167 24.3505 18.9167 27.25C18.9167 29.8496 20.8062 32.0079 23.2867 32.4265C23.621 33.7955 24.0848 35.1137 24.6644 36.3674C25.1285 37.3711 26.3386 37.6874 27.247 37.1629L27.9034 36.784C28.7834 36.2759 29.069 35.1913 28.6754 34.3158C28.4406 33.7935 28.231 33.2573 28.0482 32.7089C29.9656 32.967 31.8086 33.4587 33.5479 34.1545C34.2736 31.9852 34.6667 29.6635 34.6667 27.2499C34.6667 24.8364 34.2736 22.5147 33.5479 20.3454Z" fill="#262626"/>
<path d="M34.9274 19.7407C35.7308 22.0964 36.1667 24.6222 36.1667 27.2499C36.1667 29.8776 35.7308 32.4035 34.9274 34.7593C34.8722 34.921 34.8155 35.082 34.7569 35.2422C34.6145 35.6311 34.8144 36.0619 35.2034 36.2043C35.5923 36.3466 36.0231 36.1467 36.1655 35.7578C36.3055 35.3753 36.4363 34.9883 36.5577 34.5972C37.0814 32.9105 37.4295 31.1468 37.5807 29.3277C38.0977 28.7893 38.4167 28.0566 38.4167 27.25C38.4167 26.4433 38.0977 25.7107 37.5807 25.1722C37.4295 23.3531 37.0814 21.5894 36.5577 19.9027C36.4363 19.5116 36.3055 19.1247 36.1655 18.7422C36.0231 18.3532 35.5923 18.1533 35.2034 18.2957C34.8144 18.438 34.6145 18.8688 34.7569 19.2578C34.8155 19.4179 34.8722 19.5789 34.9274 19.7407Z" fill="#262626"/>
</svg>
