<svg width="57" height="56" viewBox="0 0 57 56" fill="none" xmlns="http://www.w3.org/2000/svg">
<rect x="0.333374" width="56" height="56" rx="28" fill="#FFD400"/>
<path fill-rule="evenodd" clip-rule="evenodd" d="M25.3334 20.5C25.6682 20.5 25.9625 20.722 26.0545 21.044L26.8677 23.8902C27.2237 25.1359 28.1974 26.1097 29.4432 26.4657L32.2894 27.2789C32.6114 27.3709 32.8334 27.6651 32.8334 28C32.8334 28.3349 32.6114 28.6291 32.2894 28.7211L29.4432 29.5343C28.1974 29.8903 27.2237 30.8641 26.8677 32.1099L26.0545 34.956C25.9625 35.278 25.6682 35.5 25.3334 35.5C24.9985 35.5 24.7042 35.278 24.6122 34.956L23.799 32.1099C23.4431 30.8641 22.4693 29.8903 21.2235 29.5343L18.3773 28.7211C18.0554 28.6291 17.8334 28.3349 17.8334 28C17.8334 27.6651 18.0554 27.3709 18.3773 27.2789L21.2235 26.4657C22.4693 26.1097 23.4431 25.1359 23.799 23.8901L24.6122 21.044C24.7042 20.722 24.9985 20.5 25.3334 20.5Z" fill="#262626"/>
<path fill-rule="evenodd" clip-rule="evenodd" d="M34.3334 17.5C34.6775 17.5 34.9775 17.7342 35.061 18.0681L35.3198 19.1036C35.555 20.0441 36.2893 20.7784 37.2298 21.0135L38.2653 21.2724C38.5991 21.3559 38.8334 21.6558 38.8334 22C38.8334 22.3442 38.5991 22.6441 38.2653 22.7276L37.2298 22.9865C36.2893 23.2216 35.555 23.9559 35.3198 24.8964L35.061 25.9319C34.9775 26.2658 34.6775 26.5 34.3334 26.5C33.9892 26.5 33.6892 26.2658 33.6058 25.9319L33.3469 24.8964C33.1118 23.9559 32.3774 23.2216 31.4369 22.9865L30.4015 22.7276C30.0676 22.6441 29.8334 22.3442 29.8334 22C29.8334 21.6558 30.0676 21.3559 30.4015 21.2724L31.4369 21.0135C32.3774 20.7784 33.1118 20.0441 33.3469 19.1036L33.6058 18.0681C33.6892 17.7342 33.9892 17.5 34.3334 17.5Z" fill="#262626"/>
<path fill-rule="evenodd" clip-rule="evenodd" d="M32.8334 31C33.1562 31 33.4428 31.2066 33.5449 31.5128L33.9391 32.6956C34.0884 33.1435 34.4399 33.4949 34.8878 33.6442L36.0705 34.0385C36.3768 34.1406 36.5834 34.4272 36.5834 34.75C36.5834 35.0728 36.3768 35.3594 36.0705 35.4615L34.8878 35.8558C34.4399 36.0051 34.0884 36.3565 33.9391 36.8044L33.5449 37.9872C33.4428 38.2934 33.1562 38.5 32.8334 38.5C32.5106 38.5 32.2239 38.2934 32.1219 37.9872L31.7276 36.8044C31.5783 36.3565 31.2268 36.0051 30.7789 35.8558L29.5962 35.4615C29.2899 35.3594 29.0834 35.0728 29.0834 34.75C29.0834 34.4272 29.2899 34.1406 29.5962 34.0385L30.7789 33.6442C31.2268 33.4949 31.5783 33.1435 31.7276 32.6956L32.1219 31.5128C32.2239 31.2066 32.5106 31 32.8334 31Z" fill="#262626"/>
</svg>
