<svg width="57" height="56" viewBox="0 0 57 56" fill="none" xmlns="http://www.w3.org/2000/svg">
<rect x="0.666748" width="56" height="56" rx="28" fill="#FFD400"/>
<path d="M28.6667 18.25C29.081 18.25 29.4167 18.5858 29.4167 19V21.25C29.4167 21.6642 29.081 22 28.6667 22C28.2525 22 27.9167 21.6642 27.9167 21.25V19C27.9167 18.5858 28.2525 18.25 28.6667 18.25Z" fill="#262626"/>
<path d="M24.1667 28C24.1667 25.5147 26.1815 23.5 28.6667 23.5C31.152 23.5 33.1667 25.5147 33.1667 28C33.1667 30.4853 31.152 32.5 28.6667 32.5C26.1815 32.5 24.1667 30.4853 24.1667 28Z" fill="#262626"/>
<path d="M35.5611 22.1663C35.854 21.8734 35.854 21.3986 35.5611 21.1057C35.2682 20.8128 34.7933 20.8128 34.5004 21.1057L32.9094 22.6967C32.6165 22.9896 32.6165 23.4644 32.9094 23.7573C33.2023 24.0502 33.6772 24.0502 33.9701 23.7573L35.5611 22.1663Z" fill="#262626"/>
<path d="M38.4167 28C38.4167 28.4142 38.081 28.75 37.6667 28.75H35.4167C35.0025 28.75 34.6667 28.4142 34.6667 28C34.6667 27.5858 35.0025 27.25 35.4167 27.25H37.6667C38.081 27.25 38.4167 27.5858 38.4167 28Z" fill="#262626"/>
<path d="M34.5003 34.8943C34.7932 35.1871 35.2681 35.1871 35.561 34.8943C35.8539 34.6014 35.8539 34.1265 35.561 33.8336L33.97 32.2426C33.6771 31.9497 33.2022 31.9497 32.9093 32.2426C32.6164 32.5355 32.6164 33.0104 32.9093 33.3033L34.5003 34.8943Z" fill="#262626"/>
<path d="M28.6667 34C29.081 34 29.4167 34.3358 29.4167 34.75V37C29.4167 37.4142 29.081 37.75 28.6667 37.75C28.2525 37.75 27.9167 37.4142 27.9167 37V34.75C27.9167 34.3358 28.2525 34 28.6667 34Z" fill="#262626"/>
<path d="M24.4243 33.3033C24.7171 33.0104 24.7171 32.5355 24.4243 32.2426C24.1314 31.9497 23.6565 31.9497 23.3636 32.2426L21.7726 33.8336C21.4797 34.1265 21.4797 34.6014 21.7726 34.8943C22.0655 35.1872 22.5404 35.1872 22.8333 34.8943L24.4243 33.3033Z" fill="#262626"/>
<path d="M22.6667 28C22.6667 28.4142 22.331 28.75 21.9167 28.75H19.6667C19.2525 28.75 18.9167 28.4142 18.9167 28C18.9167 27.5858 19.2525 27.25 19.6667 27.25H21.9167C22.331 27.25 22.6667 27.5858 22.6667 28Z" fill="#262626"/>
<path d="M23.3635 23.7573C23.6564 24.0502 24.1312 24.0502 24.4241 23.7573C24.717 23.4644 24.717 22.9896 24.4241 22.6967L22.8331 21.1057C22.5403 20.8128 22.0654 20.8128 21.7725 21.1057C21.4796 21.3986 21.4796 21.8734 21.7725 22.1663L23.3635 23.7573Z" fill="#262626"/>
</svg>
