<svg width="51" height="41" viewBox="0 0 51 41" fill="none" xmlns="http://www.w3.org/2000/svg">
<path d="M2.5702 18.1769L2.56925 18.1797C1.38782 21.6728 0.793335 25.0485 0.793335 28.3044V37.4124C0.793335 38.7931 1.91262 39.9124 3.29334 39.9124H14.5622C15.9429 39.9124 17.0622 38.7931 17.0622 37.4124L17.0622 28.1955L17.0622 28.1913C17.0273 24.0373 17.6896 20.2547 19.0413 16.837C20.2029 13.9442 21.5931 11.1501 23.2121 8.45442C23.9071 7.29729 23.6031 5.77494 22.4626 5.01498L16.4359 0.999038C15.5207 0.389193 14.2912 0.437755 13.458 1.19747C11.2871 3.17689 9.30304 5.51428 7.50467 8.20653L7.50399 8.20757C5.43062 11.3283 3.78583 14.6517 2.5702 18.1769ZM29.4498 18.1769L29.4488 18.1797C28.2674 21.6728 27.6729 25.0485 27.6729 28.3044V37.4124C27.6729 38.7931 28.7922 39.9124 30.1729 39.9124H41.4418C42.8225 39.9124 43.9418 38.7931 43.9418 37.4124L43.9418 28.1955L43.9417 28.1913C43.9069 24.0375 44.5691 20.255 45.9207 16.8374C47.0823 13.9445 48.4726 11.1502 50.0917 8.45442C50.7867 7.29729 50.4826 5.77494 49.3422 5.01498L43.3155 0.999038C42.4003 0.389193 41.1708 0.437756 40.3376 1.19747C38.1666 3.17689 36.1826 5.51428 34.3842 8.20653L34.3836 8.20757C32.3102 11.3283 30.6654 14.6517 29.4498 18.1769Z" fill="#FFE566" stroke="#FFE566"/>
</svg>
